<?xml version="1.0" encoding="utf-8"?>
<!-- Generator: Adobe Illustrator 27.2.0, SVG Export Plug-In . SVG Version: 6.00 Build 0)  -->
<svg version="1.1" xmlns="http://www.w3.org/2000/svg" xmlns:xlink="http://www.w3.org/1999/xlink" x="0px" y="0px"
	 viewBox="0 0 1024 1024" style="enable-background:new 0 0 1024 1024;" xml:space="preserve">
<style type="text/css">
	.st0{display:none;}
	.st1{display:inline;}
	.st2{fill:#FFFFFF;}
</style>
<g id="Слой_4" class="st0">
	<rect x="-102" y="-36" class="st1" width="1243" height="1060"/>
</g>
<g id="Слой_1">
</g>
<g id="Слой_3">
	<g>
		<g>
			<path class="st2" d="M194.07,505.25v104.68h-37.5V417.75h37.5v50l50-50h56.25l-68.75,68.75l122.86,123.42h-57.14L194.07,505.25z"
				/>
		</g>
		<g>
			<path class="st2" d="M381.31,608.92V418.45l188.41,190.47h-78.31l-62.42-70.97v70.97H381.31z"/>
		</g>
		<g>
			<path class="st2" d="M584.68,608.92L393.92,418.45h66.04l80.71,80.58v-80.58h44.02V608.92z"/>
		</g>
		<g>
			<path class="st2" d="M596.42,608.92v-52.32h100.31v-17.44H596.42V417.09h137.92v52.32H634.04v17.44h100.31v122.08H596.42z"/>
		</g>
		<g>
			<path class="st2" d="M746.16,418.45h37.59v37.06h62.66v-37.06l37.59,0.08v190.39h-37.59V501.67h-62.66v61.54l-37.59,46.16V418.45
				z"/>
		</g>
		<g>
			<path class="st2" d="M330.03,418.2"/>
			<polyline class="st2" points="325.47,417.45 325.66,498.03 290.14,462.56 254.98,493.41 370,609 370.72,417.45 			"/>
		</g>
	</g>
</g>
</svg>
